<?xml version="1.0" standalone="no"?>
<!DOCTYPE svg PUBLIC "-//W3C//DTD SVG 20010904//EN"
 "http://www.w3.org/TR/2001/REC-SVG-20010904/DTD/svg10.dtd">
<svg version="1.0" xmlns="http://www.w3.org/2000/svg"
 width="1828.000000pt" height="1828.000000pt" viewBox="0 0 1828.000000 1828.000000"
 preserveAspectRatio="xMidYMid meet">
<metadata>
Created by potrace 1.14, written by Peter Selinger 2001-2017
</metadata>
<g transform="translate(0.000000,1828.000000) scale(0.100000,-0.100000)"
fill="#000000" stroke="none">
<path d="M16063 17370 c-12 -5 -28 -18 -35 -30 -16 -25 -41 -26 -76 0 -39 28
-158 33 -177 6 -13 -18 -15 -18 -41 3 -36 28 -72 26 -106 -6 -15 -15 -28 -22
-28 -16 0 16 -56 36 -80 28 -11 -4 -28 -17 -36 -31 -9 -13 -21 -24 -28 -24 -6
0 -23 -7 -39 -15 -25 -13 -30 -12 -62 9 -38 26 -127 42 -153 27 -13 -7 -23 -4
-44 16 -26 25 -29 25 -114 18 -73 -6 -91 -11 -111 -31 -13 -13 -29 -24 -34
-24 -6 0 -25 -6 -42 -14 -39 -17 -125 -27 -133 -15 -3 5 -18 9 -34 9 -16 0
-42 8 -58 17 -31 18 -47 14 -94 -19 -14 -10 -21 -8 -42 11 -36 33 -132 40
-164 11 -12 -11 -22 -27 -22 -35 0 -14 -26 -21 -60 -16 -8 1 -22 2 -30 3 -8 0
-23 7 -32 16 -16 13 -18 13 -24 -2 -7 -18 -59 -22 -69 -6 -3 6 -17 10 -31 10
-14 0 -36 7 -49 16 -29 19 -53 13 -117 -32 -47 -34 -91 -44 -103 -24 -3 6 -12
10 -20 10 -8 0 -25 11 -39 25 -29 29 -67 32 -91 9 -15 -15 -17 -15 -34 0 -25
22 -66 20 -102 -6 -24 -18 -33 -20 -49 -11 -28 18 -209 14 -238 -5 -18 -12
-27 -13 -45 -3 -12 6 -40 11 -62 11 -22 -1 -53 2 -68 5 -22 6 -36 2 -59 -15
-25 -19 -43 -23 -87 -21 -37 1 -63 -3 -76 -13 -29 -23 -39 -20 -83 23 -37 36
-45 40 -96 40 -40 0 -62 -6 -81 -21 -20 -16 -35 -19 -63 -14 -23 3 -47 0 -63
-8 -22 -11 -29 -11 -44 0 -24 18 -60 18 -88 -1 -12 -8 -38 -14 -57 -13 -101 2
-185 -4 -196 -13 -8 -6 -27 -4 -59 7 -26 8 -58 13 -71 10 -12 -3 -26 -2 -29 4
-9 15 -69 12 -91 -5 -10 -8 -31 -15 -46 -15 -15 0 -29 -4 -32 -8 -7 -12 -134
-14 -141 -2 -11 18 -71 11 -90 -10 -18 -20 -18 -20 -46 6 -20 19 -36 25 -60
23 -19 -2 -44 3 -56 9 -32 18 -78 15 -97 -7 -13 -14 -26 -17 -60 -14 -27 3
-56 0 -77 -10 -50 -22 -86 -29 -159 -31 -36 0 -71 -5 -78 -9 -7 -5 -28 3 -55
22 -29 21 -51 29 -72 27 -16 -2 -61 1 -99 6 -92 13 -110 7 -130 -42 -9 -22
-18 -40 -21 -40 -6 0 -21 7 -72 34 -34 18 -74 21 -88 7 -6 -4 -24 -11 -42 -14
-26 -5 -33 -3 -38 13 -4 12 -22 24 -46 30 -35 10 -45 8 -76 -10 -31 -18 -39
-19 -69 -8 -24 8 -39 9 -57 1 -14 -7 -29 -8 -38 -2 -24 15 -68 10 -88 -10 -20
-20 -20 -20 -26 0 -4 11 -21 27 -39 36 -30 14 -36 14 -65 -1 -21 -12 -34 -27
-38 -47 -4 -23 -10 -28 -22 -23 -9 4 -33 9 -53 12 -21 2 -42 10 -49 18 -13 16
-72 19 -100 4 -14 -8 -25 -7 -41 5 -28 19 -58 19 -85 0 -18 -13 -29 -13 -65
-4 -60 16 -95 15 -116 -4 -15 -13 -19 -14 -36 -1 -30 22 -55 17 -87 -17 -30
-33 -41 -31 -72 8 -19 24 -70 32 -82 13 -4 -6 -32 -8 -71 -5 -52 4 -72 1 -103
-15 -22 -11 -42 -24 -46 -30 -4 -6 -14 -4 -28 5 -16 10 -31 12 -52 6 -25 -7
-33 -4 -50 16 -12 15 -31 25 -45 24 -119 -4 -150 -8 -166 -22 -28 -23 -50 -29
-63 -16 -9 9 -11 8 -6 -4 3 -9 -3 -23 -15 -34 -11 -10 -20 -24 -20 -32 0 -22
-13 -15 -43 23 l-29 35 -96 -5 c-119 -7 -157 -11 -204 -24 -41 -11 -86 -5
-108 13 -23 21 -208 30 -229 12 -20 -18 -65 -29 -110 -28 -18 1 -50 -3 -69 -9
-31 -8 -38 -7 -58 15 -13 14 -30 26 -39 26 -19 2 -24 3 -59 18 -44 18 -89 -6
-97 -53 -2 -11 -13 -21 -24 -23 -120 -20 -134 -20 -180 4 -57 28 -66 29 -114
1 l-39 -22 -27 32 c-30 36 -82 44 -108 17 -13 -13 -19 -13 -47 2 -30 15 -35
14 -75 -6 -23 -11 -52 -21 -64 -21 -11 0 -26 -9 -33 -20 -17 -27 -25 -25 -58
10 -33 35 -67 38 -102 10 -25 -19 -26 -19 -43 0 -19 21 -69 27 -94 11 -10 -6
-22 -5 -35 5 -27 19 -70 18 -87 -2 -19 -23 -71 -48 -94 -45 -11 1 -30 16 -43
32 -35 43 -77 40 -125 -10 -29 -31 -45 -39 -82 -44 -30 -3 -57 0 -75 9 -23 12
-36 12 -72 3 -40 -11 -48 -10 -101 16 -51 26 -62 28 -89 17 -23 -8 -35 -9 -45
-1 -19 16 -68 4 -109 -27 -19 -15 -49 -28 -67 -30 -32 -4 -37 -9 -87 -77 -20
-28 -28 -32 -42 -24 -11 7 -29 8 -54 1 -30 -7 -39 -15 -45 -38 -5 -18 -4 -37
3 -50 7 -12 13 -41 14 -66 2 -25 3 -54 4 -65 2 -33 -16 -100 -33 -126 -10 -13
-17 -42 -17 -64 0 -22 -7 -49 -15 -59 -8 -11 -15 -29 -15 -41 0 -12 -11 -32
-25 -45 -28 -27 -32 -65 -10 -97 10 -14 12 -24 5 -28 -16 -10 -12 -66 6 -86
15 -17 15 -20 -5 -45 -12 -16 -31 -29 -42 -31 -35 -5 -59 -23 -65 -48 -9 -38
4 -74 31 -87 l24 -11 -19 -25 c-21 -27 -27 -77 -9 -87 7 -5 5 -15 -5 -31 -9
-13 -16 -35 -16 -49 0 -15 -6 -25 -14 -25 -8 0 -24 -8 -37 -19 -20 -16 -23
-28 -25 -94 -1 -52 -7 -83 -19 -101 -15 -23 -16 -32 -6 -67 13 -43 3 -69 -24
-69 -20 0 -55 -49 -55 -77 0 -16 13 -37 35 -57 40 -37 42 -44 18 -61 -10 -8
-18 -29 -19 -55 -1 -27 -10 -50 -24 -65 -15 -16 -21 -34 -20 -66 1 -24 -1 -63
-5 -86 -7 -38 -11 -43 -34 -43 -55 -1 -87 -59 -57 -105 12 -19 14 -30 6 -51
-6 -15 -8 -35 -4 -46 3 -10 0 -26 -7 -34 -7 -9 -14 -42 -15 -74 -1 -32 -7 -67
-13 -79 -15 -27 -14 -54 4 -77 19 -25 19 -54 0 -54 -22 0 -95 -98 -96 -128 -2
-45 2 -66 16 -82 7 -8 15 -32 16 -52 3 -32 -2 -42 -39 -76 -23 -21 -42 -47
-42 -58 0 -29 37 -84 57 -84 14 0 12 -3 -7 -13 -35 -18 -79 -86 -80 -124 0
-23 -6 -33 -20 -38 -26 -8 -42 -39 -39 -73 2 -15 -5 -39 -15 -54 -15 -24 -16
-32 -6 -64 19 -56 6 -198 -20 -224 -12 -12 -20 -33 -20 -52 0 -17 -9 -51 -21
-75 -20 -42 -21 -55 -4 -95 5 -13 2 -18 -8 -18 -43 0 -63 -93 -27 -125 26 -23
25 -37 -3 -72 -48 -57 -59 -125 -27 -166 26 -32 25 -37 -3 -37 -47 0 -89 -84
-58 -115 5 -6 11 -28 12 -50 3 -46 -23 -95 -52 -95 -42 0 -63 -75 -34 -118 18
-25 7 -56 -28 -81 -17 -12 -18 -21 -13 -70 4 -31 6 -73 6 -94 -1 -22 4 -45 11
-53 8 -10 6 -28 -10 -76 -12 -34 -21 -70 -21 -80 0 -11 -7 -18 -19 -18 -10 0
-30 -9 -45 -21 -30 -23 -36 -78 -11 -99 21 -17 19 -31 -10 -59 -25 -23 -34
-74 -16 -85 5 -3 9 -27 9 -53 0 -44 -3 -49 -32 -63 -44 -21 -53 -55 -28 -110
19 -43 26 -74 23 -111 -1 -9 -19 -23 -41 -32 -47 -18 -56 -43 -43 -121 7 -41
6 -58 -4 -72 -15 -21 -17 -68 -3 -93 16 -31 -6 -87 -41 -101 -39 -17 -50 -39
-49 -102 0 -29 0 -75 0 -102 0 -27 -4 -54 -9 -60 -5 -6 -12 -27 -16 -46 -5
-27 -1 -42 18 -69 l24 -35 -32 -32 c-18 -17 -42 -35 -54 -39 -31 -9 -39 -32
-40 -105 0 -45 5 -70 15 -82 13 -14 14 -24 4 -65 -6 -26 -13 -74 -15 -107 -3
-32 -9 -64 -13 -70 -20 -25 -44 -124 -34 -141 14 -25 -7 -74 -45 -108 -27 -23
-33 -37 -33 -67 0 -22 -4 -42 -10 -45 -5 -3 -10 -16 -10 -28 0 -12 -7 -31 -15
-41 -19 -25 -19 -56 0 -83 19 -28 12 -44 -28 -64 -44 -21 -63 -61 -47 -99 7
-16 21 -32 32 -36 14 -4 17 -11 12 -22 -5 -10 -8 -36 -9 -59 0 -32 -8 -53 -32
-84 -40 -52 -42 -90 -8 -125 l24 -24 -25 -37 c-15 -22 -23 -46 -20 -57 4 -14
-5 -30 -29 -52 -29 -26 -35 -39 -35 -71 0 -27 -6 -46 -20 -58 -24 -21 -26 -62
-5 -101 13 -25 13 -31 -2 -54 -9 -14 -22 -34 -28 -46 -6 -12 -18 -29 -28 -38
-9 -10 -17 -30 -17 -46 0 -16 -8 -42 -17 -58 -23 -40 -5 -86 40 -102 l32 -12
-35 -11 c-24 -8 -40 -23 -52 -47 -19 -40 -23 -101 -7 -117 7 -7 3 -18 -15 -38
-30 -33 -31 -34 -11 -71 8 -16 12 -37 9 -46 -3 -9 2 -31 11 -48 15 -30 15 -30
-9 -30 -14 0 -36 -10 -50 -22 -21 -19 -26 -34 -30 -81 -3 -42 -10 -65 -25 -81
-22 -24 -29 -90 -11 -101 19 -12 10 -39 -25 -71 -42 -38 -46 -74 -10 -110 27
-26 25 -45 -8 -81 -16 -18 -19 -31 -14 -70 6 -53 -12 -111 -50 -156 -24 -29
-31 -81 -13 -92 16 -10 12 -19 -12 -30 -12 -6 -29 -22 -37 -37 -14 -24 -14
-30 2 -62 10 -22 26 -38 42 -42 32 -8 32 -18 0 -32 -25 -12 -29 -23 -40 -105
-5 -37 -14 -55 -41 -79 -37 -34 -47 -85 -19 -108 17 -14 20 -56 5 -65 -5 -3
-10 -28 -10 -55 0 -42 -4 -51 -29 -69 -33 -24 -45 -59 -32 -94 7 -18 6 -28 -5
-39 -8 -8 -16 -26 -18 -39 -1 -13 -8 -41 -15 -63 -8 -22 -11 -60 -8 -89 3 -36
0 -58 -11 -74 -10 -17 -13 -37 -8 -72 6 -47 5 -49 -23 -61 -37 -15 -77 -99
-61 -129 16 -31 12 -59 -11 -71 -28 -16 -61 -96 -54 -132 4 -15 16 -35 28 -43
19 -13 20 -18 9 -35 -6 -11 -12 -26 -12 -33 0 -7 -13 -31 -30 -53 -16 -21 -30
-46 -30 -54 0 -8 -7 -24 -15 -35 -22 -28 -10 -142 18 -172 19 -22 20 -24 3
-42 -10 -11 -31 -23 -47 -26 -16 -4 -36 -16 -44 -28 -17 -25 -20 -118 -5 -147
8 -14 5 -28 -10 -55 -24 -42 -26 -83 -5 -112 13 -18 12 -22 -5 -38 -11 -10
-20 -22 -20 -26 0 -4 -11 -19 -25 -33 -28 -28 -32 -62 -11 -92 13 -19 12 -24
-20 -58 -42 -46 -45 -86 -10 -121 24 -24 24 -25 6 -35 -32 -17 -53 -66 -39
-91 11 -22 9 -31 -27 -101 -20 -38 -17 -62 13 -117 31 -55 25 -74 -25 -84 -15
-3 -37 -19 -49 -35 -19 -26 -21 -35 -12 -67 8 -26 7 -41 0 -48 -18 -18 -13
-65 9 -87 16 -16 18 -24 10 -41 -6 -11 -9 -28 -5 -38 3 -10 -1 -24 -10 -31 -8
-7 -15 -20 -15 -29 0 -9 -7 -25 -15 -35 -8 -11 -15 -30 -15 -43 0 -17 -6 -23
-23 -23 -30 0 -50 -23 -67 -78 -16 -51 -3 -88 35 -98 14 -3 25 -8 25 -11 0 -3
-10 -27 -22 -54 -15 -32 -29 -49 -40 -49 -49 0 -73 -70 -43 -126 19 -37 19
-50 0 -58 -8 -3 -20 -17 -25 -32 -8 -21 -6 -35 10 -66 19 -36 19 -41 4 -69 -9
-18 -13 -41 -10 -55 4 -13 2 -24 -3 -24 -13 0 -61 -85 -61 -109 0 -11 -6 -35
-14 -53 -17 -37 -31 -105 -27 -128 2 -8 9 -22 17 -31 18 -20 18 -47 -1 -65 -8
-9 -15 -24 -15 -35 0 -11 -7 -27 -15 -35 -8 -8 -19 -33 -25 -54 -6 -22 -15
-40 -20 -40 -6 0 -10 -8 -10 -18 0 -10 -7 -27 -15 -38 -23 -30 -18 -60 16 -99
25 -28 38 -35 69 -35 33 0 38 -3 43 -28 6 -29 40 -52 77 -52 39 0 70 -22 70
-49 0 -40 26 -71 61 -71 19 0 29 -5 29 -15 0 -24 91 -84 128 -85 31 0 42 -12
22 -25 -19 -12 -10 -55 20 -88 23 -27 37 -34 70 -35 22 -1 40 2 40 6 0 8 43
32 55 32 3 0 16 -18 30 -40 16 -25 33 -40 45 -40 21 0 24 -4 35 -53 3 -16 17
-40 31 -54 21 -21 32 -25 65 -20 46 6 89 -13 136 -61 21 -21 41 -32 61 -32 16
0 43 -7 60 -15 27 -14 35 -14 65 -2 23 10 39 12 51 5 10 -6 34 -7 54 -4 66 11
132 11 135 1 2 -5 44 -10 93 -12 89 -1 204 -16 223 -28 6 -3 19 -2 28 4 13 7
24 4 42 -10 32 -26 67 -24 103 6 16 14 37 25 46 26 137 6 183 5 193 -8 19 -22
122 -17 143 6 19 21 46 18 46 -6 0 -22 47 -63 73 -63 13 0 41 13 62 30 20 16
42 27 47 24 5 -3 20 3 32 15 18 17 37 21 97 23 62 2 81 -2 115 -22 38 -22 42
-22 71 -8 28 14 31 14 51 -9 24 -27 82 -32 102 -8 7 8 27 15 45 15 18 0 44 9
58 20 19 16 31 18 49 11 53 -21 106 -33 129 -29 13 2 32 -5 41 -15 24 -23 73
-22 98 3 11 11 20 24 20 30 0 5 11 12 25 16 18 4 33 -1 56 -20 17 -14 41 -26
54 -26 31 0 85 46 85 72 0 20 1 20 18 5 10 -10 26 -17 34 -17 9 0 18 -5 20
-12 3 -8 13 -7 36 4 27 14 33 14 43 2 6 -8 16 -14 22 -14 6 0 30 -9 53 -20 44
-22 46 -21 123 19 l35 18 24 -28 c31 -37 74 -39 106 -4 30 32 66 32 96 0 13
-14 34 -25 47 -25 23 0 63 31 63 49 0 5 18 7 40 4 29 -4 45 -1 58 10 12 11 22
13 32 7 8 -5 36 -10 61 -10 29 0 51 -6 59 -15 28 -34 90 -12 106 37 6 20 7 19
20 -10 17 -41 57 -58 99 -43 19 7 33 7 39 1 15 -15 59 -12 82 5 25 19 58 19
74 0 28 -34 92 -13 109 36 8 25 14 30 28 23 10 -4 57 -9 105 -11 50 -2 99 -10
115 -18 38 -20 56 -19 86 5 27 21 62 26 72 10 9 -15 66 -12 95 5 32 18 70 18
94 0 24 -18 69 -19 96 -3 14 9 25 9 42 1 36 -18 218 -4 244 18 9 7 40 10 87 7
65 -4 75 -8 105 -38 28 -27 38 -31 64 -26 18 3 39 13 48 21 11 10 27 13 54 8
28 -4 44 -1 65 15 19 14 32 17 44 11 9 -5 33 -10 54 -10 115 -2 181 2 206 12
25 11 31 9 56 -15 16 -16 44 -30 62 -32 19 -2 48 -7 66 -10 25 -5 42 1 86 30
61 41 75 44 84 19 13 -36 36 -53 73 -53 21 0 43 7 50 15 7 8 17 12 22 9 5 -3
33 -12 62 -18 56 -13 94 -6 109 20 4 8 22 14 40 14 18 0 41 7 51 15 10 8 22
12 27 10 4 -3 23 2 42 11 34 16 36 16 61 -4 23 -17 36 -20 84 -15 31 3 66 12
76 19 14 10 24 10 39 2 12 -6 40 -8 66 -4 33 5 54 2 77 -10 28 -16 33 -15 67
1 29 14 45 15 75 8 37 -9 112 -9 187 0 122 16 140 16 157 0 15 -14 22 -14 75
2 32 9 65 19 73 22 8 3 30 5 48 4 18 -2 40 3 48 10 11 9 24 8 59 -5 28 -11 56
-15 74 -11 22 5 40 0 72 -20 l42 -27 116 16 c105 15 120 16 153 2 43 -18 80
-9 100 24 15 23 28 26 28 6 0 -8 11 -27 23 -42 39 -44 77 -38 139 24 l51 51
27 -29 c29 -31 58 -37 90 -20 11 6 50 12 87 15 37 2 91 9 118 15 28 6 62 13
77 17 21 4 32 -1 50 -21 26 -29 124 -60 163 -50 12 3 35 19 51 35 28 29 58 37
69 19 8 -12 72 -13 79 -1 3 4 39 11 80 15 73 7 74 6 104 -24 39 -38 66 -38
105 2 32 32 33 32 134 33 88 0 105 3 131 22 l29 21 -5 -23 c-5 -29 29 -65 63
-65 14 0 45 10 68 22 24 12 57 21 77 19 19 -1 50 3 69 8 25 8 42 7 68 -4 20
-8 50 -15 67 -15 17 0 40 -7 50 -15 27 -20 68 -19 97 3 38 30 69 33 100 12 21
-16 38 -19 80 -15 29 3 60 12 69 20 21 19 58 19 105 0 20 -9 46 -13 57 -9 13
4 28 -2 44 -17 44 -42 174 -19 174 31 0 17 7 19 50 19 40 -1 56 3 75 21 14 13
25 34 25 47 0 13 5 23 10 23 6 0 10 -9 10 -19 0 -33 11 -50 45 -71 28 -17 43
-19 111 -14 44 3 90 5 104 4 14 -1 34 -2 45 -2 25 0 138 26 153 36 6 4 20 -2
32 -14 24 -24 85 -27 115 -6 39 26 75 25 102 -1 19 -20 31 -24 58 -20 25 4 38
1 51 -14 9 -10 29 -19 44 -19 32 0 80 34 80 57 0 11 7 7 21 -11 15 -19 30 -26
53 -26 28 0 43 11 95 67 34 37 64 78 68 92 3 14 12 35 19 46 17 24 18 99 2
128 -25 48 -18 161 15 234 5 12 7 38 4 57 -5 31 -1 38 40 76 43 39 45 43 38
78 -11 55 -6 132 10 156 8 11 15 30 15 42 0 31 -29 96 -52 117 -15 15 -17 22
-7 33 6 8 20 14 29 14 24 0 60 46 60 77 0 14 -15 38 -35 59 l-36 35 31 29 c16
15 30 36 30 45 0 9 11 26 25 37 27 21 33 64 14 99 -5 11 -11 38 -11 59 0 32 5
44 31 66 27 22 31 32 31 75 0 30 -8 64 -20 86 -26 49 -25 61 5 85 29 23 34 72
9 99 -12 14 -13 22 -4 39 6 11 12 52 13 89 2 63 4 70 29 84 14 8 34 27 43 41
16 24 16 34 5 107 l-13 80 27 28 c30 31 34 73 9 99 -10 9 -23 31 -28 47 -9 25
-7 32 13 53 18 17 23 31 19 55 -3 24 1 35 18 49 28 22 40 65 24 84 -6 7 -12
53 -13 102 -2 49 -6 93 -9 99 -4 6 5 29 19 51 21 31 26 54 29 111 2 59 7 77
25 96 13 13 23 38 24 55 1 20 7 32 19 36 28 9 53 68 40 97 -6 13 -9 35 -6 50
3 15 0 34 -6 41 -10 12 -8 19 7 34 36 36 37 77 3 128 -28 43 -29 48 -15 69 12
18 14 43 11 109 -4 78 -3 88 19 118 13 17 24 46 24 63 0 22 6 33 22 40 54 24
55 107 1 136 l-25 14 46 40 c51 43 68 88 55 137 -5 19 -1 39 11 63 22 42 12
88 -22 106 -17 9 -19 18 -15 47 10 65 16 84 32 102 26 28 19 75 -15 103 -40
34 -38 47 9 47 24 0 48 8 64 21 24 18 27 26 26 92 0 40 0 85 1 102 0 16 -6 35
-13 40 -11 8 -13 23 -6 72 6 39 5 72 -1 89 -6 15 -9 28 -8 29 2 1 18 10 35 19
34 17 38 28 47 106 3 25 8 64 12 86 3 26 2 44 -5 48 -6 4 -8 24 -5 50 4 24 2
51 -3 61 -13 23 7 81 34 100 25 18 36 55 25 86 -7 17 -3 27 16 46 19 19 23 31
19 56 -14 81 -24 124 -30 134 -4 6 3 13 18 17 33 8 48 41 42 87 -3 22 -1 39 4
39 6 0 21 11 34 25 34 34 36 115 3 148 l-23 22 28 27 c29 29 34 62 14 93 -18
29 -14 136 6 166 18 25 22 66 8 87 -8 14 4 57 28 101 7 14 10 36 7 55 -5 25
-2 37 14 51 24 22 26 62 5 92 -21 30 -10 70 23 86 37 17 58 62 43 94 -6 13
-11 41 -11 62 0 21 -3 41 -6 44 -4 3 -8 36 -9 71 -2 53 1 67 14 71 28 8 56 67
63 130 4 33 10 78 13 101 6 37 4 43 -24 66 l-30 26 26 49 c40 75 63 277 34
306 -8 8 -4 17 14 32 18 14 27 32 29 60 2 22 10 41 17 43 60 19 68 111 12 133
-23 9 -24 12 -17 67 3 31 11 63 16 69 6 7 8 27 6 45 -3 20 1 44 12 63 27 48
47 184 32 211 -8 14 -5 25 14 47 28 33 30 63 9 95 -12 16 -13 27 -5 41 5 11
10 32 10 48 0 18 3 23 8 15 13 -20 43 19 35 46 -4 18 -10 21 -26 16 -15 -5
-11 3 16 28 38 36 45 64 26 99 -8 15 -7 24 2 35 20 24 25 97 14 219 -6 69 8
108 43 113 25 4 62 47 62 73 0 9 -12 31 -26 48 -14 17 -21 31 -14 31 6 0 22
12 35 26 27 29 32 70 12 98 -8 11 -11 38 -9 74 6 84 5 113 -5 152 -7 27 -5 47
10 89 12 33 17 66 14 87 -5 31 -3 34 18 34 29 0 65 36 65 64 0 31 -24 92 -43
114 -16 17 -15 20 19 50 l36 32 -7 65 c-6 57 -4 68 14 91 25 32 26 50 5 114
-15 47 -15 49 5 69 12 12 21 32 21 45 0 13 8 38 17 55 15 25 16 35 6 62 -10
26 -9 35 4 55 18 28 11 70 -18 97 -11 10 -17 22 -14 27 14 23 46 167 42 190
-3 13 2 37 10 53 8 16 13 44 11 62 -2 25 4 41 21 59 18 19 23 33 19 58 -6 41
-1 58 18 58 8 0 26 11 40 25 24 24 25 29 18 98 -3 39 -10 76 -14 81 -5 5 -5
16 0 25 44 82 53 115 42 144 -8 22 -9 34 -1 44 7 8 13 76 15 168 2 86 8 164
13 174 12 22 3 58 -29 119 -26 50 -19 66 34 76 41 8 63 49 50 93 -17 60 -12
93 17 123 26 26 28 33 25 91 -3 49 -9 67 -24 79 -19 15 -18 16 16 46 19 16 36
39 37 50 1 10 7 29 13 41 20 36 14 77 -13 103 -29 27 -31 42 -9 61 11 9 15 25
12 53 -3 34 0 44 19 59 17 13 23 29 23 56 0 20 -4 41 -9 47 -5 5 -11 35 -13
66 -5 56 -4 59 34 92 21 19 42 45 47 58 9 24 -2 94 -20 130 -6 13 -2 24 17 43
22 23 25 32 20 65 -5 34 -2 43 24 70 36 37 41 89 10 120 -11 11 -24 20 -30 20
-6 0 -5 10 2 25 8 19 8 31 0 50 -10 22 -9 25 7 25 36 0 63 33 63 75 0 27 7 47
21 63 32 34 28 89 -7 117 l-28 22 35 21 c24 14 37 30 42 53 6 29 3 36 -22 59
-26 24 -28 29 -17 45 18 24 12 162 -7 193 -8 13 -23 25 -34 28 -11 3 -29 20
-40 37 -23 37 -72 48 -108 24 -29 -19 -85 -29 -92 -17 -3 6 -19 10 -34 10 -16
0 -34 7 -41 15 -7 8 -28 15 -46 15 -25 0 -39 -7 -55 -30 -22 -29 -22 -29 -45
-11 -13 11 -50 21 -85 25 -58 7 -63 6 -90 -20 -23 -22 -32 -25 -41 -16 -15 15
-41 15 -56 0 -17 -17 4 -48 32 -48 27 0 56 -29 56 -56 0 -11 10 -30 23 -41 12
-12 35 -39 51 -62 19 -27 38 -41 52 -41 12 0 28 -7 35 -16 17 -20 56 -37 96
-42 21 -3 35 -40 23 -62 -12 -22 -40 -26 -71 -10 -10 6 -19 7 -20 3 -7 -82
-19 -166 -28 -198 -13 -43 -17 -137 -7 -154 10 -16 18 -100 11 -121 -3 -11
-18 -27 -33 -35 -23 -14 -28 -24 -30 -65 -2 -27 2 -58 8 -70 8 -16 6 -24 -10
-40 l-20 -20 23 -33 c39 -58 62 -83 80 -90 11 -4 21 -16 24 -26 2 -10 17 -24
31 -31 15 -7 34 -16 42 -20 8 -4 17 -16 19 -26 2 -10 14 -29 27 -41 13 -12 24
-29 24 -38 0 -8 9 -15 20 -15 13 0 24 -10 30 -26 6 -14 14 -23 19 -20 12 8 41
-21 41 -38 0 -8 -7 -19 -15 -26 -8 -7 -15 -18 -15 -25 0 -6 -9 -20 -20 -30
-13 -12 -18 -25 -14 -41 4 -16 -1 -28 -17 -41 -50 -40 -71 -65 -65 -78 3 -8 1
-17 -4 -20 -6 -4 -10 -17 -10 -31 0 -14 -7 -27 -15 -31 -28 -10 -46 -58 -34
-91 12 -36 0 -67 -31 -77 -11 -3 -20 -11 -20 -16 0 -5 -16 -27 -36 -48 -19
-22 -34 -46 -33 -53 4 -21 -19 -68 -34 -68 -16 0 -57 -82 -57 -116 0 -13 -7
-27 -15 -30 -8 -3 -17 -14 -20 -25 -4 -10 -15 -19 -25 -19 -14 0 -22 -11 -30
-40 -6 -21 -15 -42 -19 -45 -5 -3 -12 -23 -16 -44 -4 -22 -13 -42 -21 -45 -8
-3 -14 -12 -14 -19 0 -8 -7 -21 -16 -28 -13 -10 -15 -24 -10 -64 10 -78 8 -95
-19 -127 -31 -37 -31 -41 0 -72 28 -28 34 -86 11 -105 -8 -6 -16 -26 -20 -44
-19 -111 -26 -136 -45 -175 -19 -36 -21 -49 -12 -74 6 -17 9 -34 6 -38 -3 -4
-6 -31 -8 -59 -3 -28 -10 -57 -16 -65 -9 -10 -9 -20 -3 -33 16 -30 2 -72 -34
-100 -19 -14 -34 -29 -34 -34 0 -4 11 -19 25 -33 41 -41 27 -109 -26 -128 -11
-4 -9 -11 9 -27 36 -36 33 -83 -10 -128 -21 -21 -29 -38 -25 -52 3 -11 -1 -28
-8 -38 -9 -12 -12 -33 -8 -60 3 -24 1 -48 -5 -55 -15 -19 -17 -87 -3 -135 10
-38 9 -48 -11 -90 -22 -48 -26 -116 -12 -228 5 -36 2 -43 -29 -72 -31 -29 -35
-39 -41 -105 -4 -40 -14 -88 -22 -107 -8 -18 -14 -50 -14 -71 0 -21 -6 -43
-14 -49 -10 -8 -14 -33 -13 -85 2 -59 -2 -78 -16 -94 -17 -19 -17 -22 -3 -44
13 -20 14 -34 4 -93 -6 -41 -19 -79 -29 -91 -20 -22 -25 -69 -9 -79 15 -9 12
-47 -6 -91 -17 -40 -19 -93 -8 -152 7 -36 -21 -107 -51 -132 -13 -10 -13 -16
0 -39 7 -15 21 -33 29 -40 31 -26 8 -111 -29 -111 -24 0 -26 -18 -11 -71 18
-59 8 -97 -32 -114 -13 -6 -22 -19 -22 -32 0 -12 -4 -25 -10 -28 -10 -6 -8
-53 2 -71 4 -5 3 -40 -2 -77 -6 -50 -4 -79 7 -114 8 -27 16 -78 17 -114 1 -36
6 -71 10 -77 10 -16 -3 -79 -20 -93 -17 -14 -17 -39 0 -62 7 -9 12 -31 10 -48
-2 -16 2 -40 9 -52 12 -21 13 -70 6 -301 0 -26 4 -53 10 -59 18 -18 13 -55 -9
-67 -25 -13 -26 -30 -2 -30 45 0 55 -45 17 -80 -30 -28 -32 -61 -5 -78 21 -13
27 -47 10 -57 -6 -3 -1 -15 11 -28 17 -18 20 -30 15 -69 -4 -27 -2 -57 5 -72
9 -20 9 -32 -2 -58 -7 -18 -12 -45 -10 -59 1 -17 -4 -31 -14 -36 -15 -9 -14
-13 5 -51 21 -40 21 -44 6 -68 -10 -14 -14 -33 -11 -44 3 -11 1 -29 -5 -41 -7
-11 -12 -41 -12 -66 0 -39 -3 -46 -27 -56 -15 -7 -26 -17 -24 -24 2 -7 -1 -22
-7 -34 -9 -15 -9 -24 -1 -32 17 -17 13 -35 -16 -74 -33 -43 -53 -97 -46 -123
3 -13 -6 -33 -27 -57 -29 -32 -32 -41 -26 -79 4 -34 2 -46 -12 -56 -9 -7 -17
-26 -17 -43 0 -22 -5 -31 -20 -33 -34 -7 -41 -21 -17 -38 25 -17 29 -46 9 -66
-8 -7 -17 -25 -20 -39 -4 -15 -16 -29 -27 -32 -14 -3 -20 -13 -20 -31 0 -15
-9 -39 -20 -54 -13 -18 -21 -47 -23 -85 -2 -32 -9 -62 -16 -66 -23 -14 -38
-56 -33 -93 3 -27 -1 -41 -17 -57 -17 -17 -20 -29 -15 -60 5 -34 3 -41 -18
-55 -19 -13 -24 -24 -22 -49 3 -45 -4 -65 -27 -72 -10 -4 -19 -14 -19 -24 0
-9 -5 -22 -12 -29 -9 -9 -9 -17 2 -37 17 -32 2 -86 -28 -100 -13 -6 -22 -19
-22 -32 0 -12 -7 -29 -16 -37 -16 -17 -14 -36 13 -95 14 -31 14 -37 -1 -67 -8
-19 -20 -34 -25 -34 -5 0 -16 -12 -26 -26 -17 -26 -16 -27 9 -51 46 -42 30
-97 -35 -122 -38 -14 -45 -68 -13 -98 36 -33 33 -86 -6 -114 -16 -12 -27 -26
-24 -31 7 -12 15 -111 14 -177 -1 -42 -7 -61 -26 -84 -13 -15 -24 -34 -24 -41
0 -8 -9 -24 -20 -38 l-19 -25 29 -22 c24 -17 30 -29 30 -58 0 -30 -8 -44 -44
-78 -43 -42 -44 -44 -45 -111 -1 -48 4 -73 15 -85 24 -27 14 -71 -21 -89 -27
-14 -30 -21 -32 -68 -1 -29 -9 -62 -16 -73 -17 -24 -6 -103 18 -129 31 -35 5
-104 -46 -122 -11 -4 -9 -11 10 -32 31 -33 32 -78 3 -109 -13 -14 -22 -36 -22
-54 0 -17 -6 -36 -14 -42 -16 -13 -26 -80 -14 -87 16 -10 8 -81 -10 -97 -26
-24 -28 -89 -2 -112 27 -24 26 -70 -3 -99 -18 -18 -22 -31 -19 -68 3 -39 0
-48 -23 -66 -15 -12 -35 -38 -45 -58 -17 -33 -18 -40 -5 -72 20 -46 19 -64 -4
-93 -19 -24 -19 -25 0 -48 26 -32 24 -68 -5 -94 -23 -20 -24 -23 -9 -48 19
-31 13 -61 -20 -110 -29 -42 -28 -72 1 -99 15 -14 22 -33 22 -59 0 -42 -19
-65 -63 -76 -36 -10 -40 -19 -17 -40 30 -27 25 -71 -11 -107 l-30 -31 25 -26
c32 -33 34 -78 6 -114 -16 -20 -19 -34 -14 -69 5 -33 2 -47 -10 -57 -11 -9
-16 -30 -16 -64 0 -38 -6 -58 -24 -82 -26 -34 -26 -61 1 -100 27 -39 4 -89
-49 -108 -10 -4 -18 -15 -18 -26 0 -11 -11 -29 -25 -40 l-26 -19 27 -19 c77
-54 85 -92 28 -142 -35 -31 -35 -32 -19 -58 11 -17 15 -36 11 -57 -3 -17 -8
-69 -11 -115 -2 -46 -10 -93 -17 -105 -14 -22 -16 -94 -4 -137 16 -56 -39
-111 -96 -96 -11 3 -41 -1 -66 -10 -41 -14 -49 -13 -79 1 -19 9 -35 25 -39 41
-8 31 -24 32 -53 1 -32 -34 -142 -47 -171 -21 -11 10 -20 24 -20 32 0 19 -17
16 -51 -9 -27 -20 -33 -21 -62 -9 -18 7 -40 15 -49 18 -32 10 -90 -8 -115 -35
-30 -33 -82 -35 -115 -5 -27 24 -132 41 -143 23 -4 -6 -26 -10 -49 -9 -22 1
-51 -1 -64 -5 -12 -4 -38 -2 -58 4 -29 10 -41 9 -68 -4 -38 -18 -72 -21 -81
-6 -3 5 -19 7 -34 4 -16 -3 -38 -1 -49 5 -15 8 -27 7 -51 -5 -29 -15 -34 -14
-72 5 -22 12 -45 21 -52 21 -7 0 -34 -18 -61 -40 -34 -28 -58 -40 -80 -40 -18
0 -37 -5 -42 -10 -6 -6 -24 -13 -40 -16 -63 -11 -144 -62 -144 -90 0 -16 -34
-27 -60 -19 -23 7 -77 -32 -98 -71 -15 -28 -53 -32 -72 -9 -12 14 -15 13 -32
-5 -21 -22 -31 -24 -57 -10 -12 6 -31 5 -54 -2 -28 -9 -37 -17 -39 -37 -3 -24
-7 -27 -75 -34 -63 -8 -72 -11 -75 -30 -2 -18 -11 -23 -44 -25 -37 -3 -45 1
-63 27 -25 35 -26 43 -6 81 9 17 11 30 6 30 -5 0 -13 9 -16 20 -6 18 -8 19
-22 4 -10 -10 -24 -13 -37 -9 -12 3 -47 8 -80 11 -32 3 -71 11 -87 20 -21 10
-34 12 -48 5 -14 -8 -25 -6 -45 10 -15 12 -33 19 -40 16 -8 -3 -31 3 -51 14
-25 14 -41 17 -49 10 -12 -10 -190 -11 -200 -1 -3 3 -49 5 -103 4 -54 -1 -102
2 -108 6 -9 7 -143 20 -222 21 -18 0 -33 4 -33 9 0 4 -16 10 -35 12 -25 3 -40
-1 -52 -14 -20 -22 -31 -23 -55 -1 -11 9 -25 18 -32 19 -8 1 -28 5 -45 9 -23
5 -32 3 -37 -9 -7 -19 -98 -19 -129 0 -11 7 -49 18 -84 24 -59 11 -64 10 -78
-9 -21 -31 -66 -26 -178 19 -11 5 -34 11 -51 14 -26 4 -33 1 -37 -15 -5 -19
-7 -19 -36 -5 -41 21 -55 20 -88 -8 -27 -24 -27 -24 -53 -4 -62 45 -161 44
-206 -3 -23 -24 -36 -29 -74 -29 -53 0 -80 21 -80 62 0 37 -8 39 -43 7 -17
-16 -39 -29 -48 -29 -9 0 -22 -7 -29 -14 -9 -11 -18 -13 -37 -5 -19 7 -32 6
-49 -6 -22 -14 -25 -14 -36 5 -9 13 -24 20 -45 20 -17 0 -35 5 -38 10 -9 14
-25 12 -25 -3 0 -8 -8 -21 -17 -30 -28 -24 -149 -9 -174 22 -11 13 -19 30 -19
39 0 14 -2 14 -17 0 -10 -9 -35 -18 -55 -22 -21 -4 -38 -13 -38 -19 0 -9 -11
-12 -34 -9 -19 2 -47 -3 -66 -13 -30 -15 -35 -16 -45 -2 -9 13 -13 13 -30 1
-20 -15 -75 -19 -75 -6 0 4 -21 8 -47 10 -26 2 -54 7 -62 12 -9 5 -25 3 -41
-5 -29 -14 -228 -14 -251 1 -8 5 -47 9 -87 9 -57 0 -73 -3 -77 -16 -7 -21 -53
-41 -77 -33 -11 3 -29 15 -39 25 -14 14 -33 19 -72 19 -28 0 -67 0 -85 1 -18
1 -40 -5 -50 -13 -9 -9 -34 -21 -54 -29 -36 -12 -38 -12 -77 24 -53 48 -91 49
-132 6 -27 -29 -31 -30 -59 -19 -19 8 -53 10 -97 6 -38 -3 -75 -6 -83 -5 -72
3 -82 1 -105 -21 -22 -20 -25 -21 -31 -6 -8 20 -55 46 -84 46 -12 0 -31 -11
-43 -24 -25 -27 -77 -37 -99 -18 -12 10 -18 9 -28 -3 -14 -17 -46 -20 -55 -4
-5 6 -12 3 -21 -10 -11 -15 -25 -20 -57 -19 -23 0 -50 4 -60 10 -13 6 -31 3
-65 -13 -26 -11 -60 -27 -77 -35 -38 -17 -154 -39 -162 -30 -4 3 -14 -1 -23
-9 -16 -14 -20 -14 -48 2 -30 17 -31 17 -55 -5 -28 -26 -34 -27 -76 -6 -21 11
-45 14 -69 10 -71 -11 -147 -13 -197 -4 -126 22 -190 24 -211 7 -12 -9 -20 -9
-38 1 -19 10 -29 9 -57 -4 -40 -18 -135 -18 -150 0 -7 9 -18 10 -34 4 -25 -9
-55 8 -55 31 0 6 -10 3 -22 -5 -17 -12 -25 -13 -42 -3 -12 7 -50 12 -86 13
-36 0 -84 8 -108 16 -23 9 -44 12 -47 8 -3 -6 -93 -5 -175 1 -8 1 -39 -1 -69
-4 -40 -5 -62 -2 -82 10 -25 15 -28 15 -54 -5 -32 -26 -58 -28 -75 -7 -8 9
-30 15 -56 15 -32 0 -44 4 -44 15 0 8 -10 23 -22 35 -30 28 -83 26 -119 -5
-24 -20 -34 -22 -52 -14 -14 6 -32 7 -46 1 -17 -6 -34 -3 -62 11 -36 17 -41
18 -70 3 -28 -14 -34 -14 -52 -1 -24 17 -68 20 -83 6 -15 -14 -82 -23 -89 -11
-13 21 -98 6 -116 -22 -6 -9 -105 18 -114 32 -9 15 -91 23 -113 11 -11 -6 -24
-20 -27 -31 -8 -26 -22 -25 -79 5 -64 34 -165 36 -195 4 -16 -17 -27 -20 -53
-15 -62 13 -158 18 -175 11 -24 -11 -62 -6 -95 11 -41 21 -86 18 -111 -10 -14
-15 -39 -26 -69 -30 -42 -6 -49 -4 -72 21 -23 25 -31 27 -91 25 l-66 -3 -14
35 c-11 25 -19 33 -33 30 -23 -6 -72 32 -72 56 0 9 -7 23 -15 30 -8 7 -15 20
-15 28 0 9 -12 28 -26 43 -19 19 -27 40 -28 66 -1 37 0 38 30 35 22 -2 40 4
62 23 l32 27 34 -21 c40 -25 79 -27 101 -5 8 9 34 18 56 21 32 5 44 1 64 -17
37 -34 81 -31 117 9 24 27 31 30 49 20 12 -6 36 -8 54 -5 19 4 36 2 40 -4 3
-5 22 -10 41 -10 19 0 48 -7 65 -15 26 -14 33 -14 59 -2 17 9 45 13 72 10 28
-3 50 0 62 10 16 12 25 12 50 2 47 -18 114 -8 133 21 12 19 19 22 35 13 10 -6
34 -9 51 -8 18 2 42 -3 54 -9 33 -18 58 -15 91 13 24 20 43 25 113 29 98 6
138 11 167 20 16 5 27 -1 47 -28 21 -28 36 -36 71 -42 49 -7 117 16 133 44 7
12 14 12 45 2 21 -6 54 -12 74 -12 20 0 44 -6 52 -12 31 -27 59 -25 96 5 20
16 42 29 49 29 7 0 18 7 25 14 8 11 18 12 36 5 14 -5 43 -9 64 -9 21 0 42 -5
46 -11 4 -7 22 -9 47 -6 26 4 51 0 73 -11 27 -12 38 -13 59 -4 14 7 36 12 48
12 12 0 35 7 51 15 26 14 30 13 58 -11 19 -15 37 -23 47 -19 9 4 34 9 56 12
22 3 45 9 50 13 10 7 87 4 162 -6 33 -5 45 -2 62 15 12 12 29 21 38 21 10 0
37 7 61 15 38 13 45 13 66 0 16 -11 35 -14 63 -9 29 4 42 2 52 -10 18 -22 53
-20 83 4 23 18 27 18 47 3 18 -12 57 -16 185 -18 l161 -3 22 27 c18 23 29 26
80 26 32 1 69 4 83 7 14 4 50 9 81 12 46 5 60 2 78 -13 28 -24 177 -28 203 -5
10 10 18 12 22 5 4 -5 38 -10 76 -9 61 0 73 4 88 23 l18 23 23 -24 c15 -15 35
-24 55 -24 17 0 40 -7 50 -15 29 -22 64 -18 90 8 25 25 38 24 75 -4 33 -27 67
-24 99 8 30 30 78 39 102 18 35 -30 105 -25 150 11 12 10 19 10 34 -1 36 -27
176 -11 194 22 9 15 11 15 33 -1 32 -22 71 -20 97 4 26 24 45 25 63 4 14 -16
51 -16 135 3 34 8 45 7 64 -9 27 -22 50 -23 76 -4 10 8 29 12 41 10 11 -3 31
-1 42 6 17 9 25 8 37 -5 25 -25 61 -29 90 -10 21 14 31 15 51 6 19 -9 32 -8
56 3 54 24 114 28 142 10 13 -9 51 -18 83 -21 51 -5 62 -3 79 14 11 11 23 27
25 34 4 12 9 12 29 1 13 -7 44 -12 69 -11 25 0 59 -2 75 -6 18 -4 48 0 74 9
43 14 45 14 74 -10 22 -18 40 -24 77 -24 41 0 52 4 73 30 24 28 27 29 57 17
23 -10 48 -11 97 -5 53 8 72 6 100 -7 40 -19 76 -14 100 15 12 13 21 16 33 10
13 -7 208 -7 307 -1 6 1 18 8 27 16 13 14 19 13 56 -6 34 -18 46 -20 66 -10
19 8 30 8 47 -3 16 -11 48 -13 122 -10 133 5 124 3 177 22 38 13 54 13 85 4
39 -12 77 -7 101 11 7 5 31 13 55 18 35 6 46 4 64 -13 17 -16 29 -19 50 -13
38 9 95 7 107 -5 21 -21 75 -11 108 20 36 35 37 35 52 15 6 -8 25 -18 43 -21
27 -5 37 -1 63 25 37 36 50 38 75 11 10 -11 24 -20 30 -20 7 0 18 -6 24 -14
15 -18 67 -28 89 -17 40 20 91 31 120 25 23 -5 39 -1 62 16 l31 22 27 -25 c24
-23 35 -26 97 -25 91 0 103 4 125 40 10 18 21 25 24 19 11 -17 63 -13 106 9
l39 20 20 -25 c18 -24 24 -25 83 -20 34 3 75 10 89 16 21 8 34 7 55 -4 22 -11
42 -13 79 -6 28 4 78 5 111 2 54 -5 64 -3 83 16 16 16 28 19 51 14 18 -3 41 0
54 6 20 11 26 9 55 -19 26 -26 37 -31 59 -25 15 3 37 17 50 31 37 40 66 41 99
4 19 -21 37 -31 53 -31 14 1 50 2 81 4 37 1 64 8 76 19 15 14 26 16 52 8 37
-10 57 -5 88 23 21 19 26 19 63 7 41 -13 58 -10 101 22 14 9 23 7 49 -15 38
-32 59 -34 94 -6 25 20 29 20 59 5 18 -8 42 -15 53 -15 10 0 31 -3 46 -7 43
-10 71 2 97 43 l24 37 13 -26 c19 -37 59 -50 117 -39 44 8 51 7 72 -15 38 -38
92 -28 117 21 l13 24 40 -19 c55 -26 70 -25 106 10 17 16 39 32 49 35 10 3 29
23 41 43 20 34 22 50 23 187 1 128 4 154 20 177 12 19 16 36 11 58 -5 24 -1
36 19 61 27 32 35 86 15 106 -8 8 -6 18 6 37 12 18 15 36 11 58 -11 54 -7 80
13 95 33 23 37 70 8 110 l-26 36 30 28 c17 15 29 37 29 51 0 14 9 33 20 43 39
36 12 115 -40 115 -29 0 -25 9 25 67 47 53 55 84 31 118 -21 32 -29 75 -13 75
44 0 75 93 41 121 -26 21 -13 114 20 144 29 27 32 52 12 110 -14 39 -14 40 15
52 38 16 54 55 35 91 -10 20 -11 32 -3 50 8 17 7 32 -1 56 -19 52 -14 80 19
115 23 25 30 40 28 65 -2 18 4 42 14 56 31 45 18 160 -18 160 -8 0 -15 8 -16
18 -3 47 4 100 16 130 8 17 12 32 10 32 -2 0 2 15 9 33 7 17 12 50 11 72 -1
22 2 45 7 52 5 6 10 25 10 42 1 18 11 39 25 52 12 13 23 30 23 39 0 8 7 26 16
38 9 13 17 52 20 97 4 71 3 77 -21 99 l-25 23 40 42 c45 46 50 75 20 114 -19
24 -19 26 -3 55 13 23 15 37 8 58 -9 24 -6 32 13 51 14 14 22 32 20 46 -2 12
5 30 15 40 12 12 18 31 16 55 -1 20 3 50 10 65 6 16 11 34 11 40 0 23 -27 88
-43 104 -14 15 -13 20 19 58 21 26 34 53 34 71 0 16 7 38 15 48 22 29 18 61
-15 121 l-30 54 35 21 c38 24 51 55 40 98 -4 15 -9 59 -12 97 -4 68 -3 72 26
103 33 34 38 60 20 94 -9 17 -7 24 14 42 32 26 40 56 27 90 -8 21 -7 32 5 49
20 28 19 68 -2 105 -17 29 -17 31 1 51 16 17 18 30 12 75 -5 48 -3 60 19 92
15 23 23 45 19 56 -4 13 4 28 25 47 36 33 40 67 12 102 -26 33 -33 90 -14 111
9 10 16 36 16 60 -1 24 4 48 9 55 5 6 8 26 6 44 -2 25 4 39 25 60 30 31 35 64
12 96 -13 19 -13 25 3 52 16 29 16 33 1 60 -15 26 -15 30 -2 44 11 10 17 38
18 82 2 43 8 72 18 83 23 25 30 111 13 144 -13 25 -13 27 15 38 30 13 57 69
43 91 -4 7 -6 30 -6 52 1 22 -5 51 -13 63 -22 34 -19 56 15 94 33 39 36 62 16
111 -19 46 -15 142 7 167 18 19 21 63 7 97 -5 14 -2 26 12 42 27 29 39 87 23
109 -10 14 -9 23 2 46 8 16 12 36 9 44 -3 9 1 17 12 21 27 9 52 45 52 75 0 20
-11 36 -40 59 l-39 32 26 20 c23 19 25 25 20 74 -5 50 -4 55 18 63 53 20 68
88 29 132 -13 13 -13 24 -4 57 6 22 15 43 20 46 6 3 10 16 10 28 0 12 7 31 15
41 21 27 19 63 -5 96 -14 20 -17 31 -9 36 6 3 17 22 25 40 13 30 12 38 -1 65
-22 41 -5 176 25 199 24 19 35 63 21 88 -9 17 -6 25 19 51 34 33 39 74 14 102
-25 27 -20 97 11 151 23 42 26 54 20 102 -6 42 -3 59 10 79 9 15 15 40 14 59
-2 20 4 44 14 58 9 13 17 34 17 45 0 11 7 29 15 39 20 27 19 69 -3 97 -17 20
-17 25 -5 50 11 22 11 36 2 71 -10 38 -10 53 4 96 10 28 17 67 17 87 0 21 13
61 31 96 21 40 30 68 26 86 -3 15 -1 34 3 42 22 45 29 92 23 159 -3 40 -10 75
-15 78 -5 3 2 16 17 29 33 31 33 77 1 110 -23 23 -23 24 -5 52 21 31 24 65 9
94 -8 14 -7 27 3 47 59 112 62 129 41 205 -4 11 0 17 10 17 36 0 59 77 36 121
-8 14 -6 27 5 50 13 23 14 37 6 60 -7 19 -7 31 1 35 5 4 7 19 4 35 -6 30 5 73
32 126 13 27 14 39 4 83 -11 47 -10 54 9 78 14 18 19 38 18 63 -2 24 3 42 15
54 18 18 18 37 0 123 -3 18 -2 38 4 45 16 21 24 105 12 141 -9 29 -7 41 14 88
14 31 28 74 32 96 4 23 13 47 20 53 21 17 17 65 -8 109 l-23 39 28 28 c16 18
27 40 27 59 0 16 7 38 15 48 24 32 19 81 -10 104 l-26 20 27 27 c23 24 26 32
21 73 -3 26 -9 55 -12 65 -5 13 -2 17 13 17 29 0 61 31 68 66 4 24 0 37 -20
61 -29 35 -33 53 -12 53 21 0 46 39 46 71 0 14 -9 37 -19 51 -20 25 -20 25 6
61 25 35 25 40 14 80 -7 23 -17 53 -22 65 -7 18 -4 32 11 57 11 18 20 43 19
56 0 13 0 49 1 81 0 31 -4 59 -10 63 -15 9 -2 25 20 25 44 0 79 92 45 120 -8
7 -13 16 -10 20 3 4 7 41 10 81 3 41 6 81 7 89 0 8 9 26 20 39 10 13 18 35 18
50 0 28 18 82 38 118 20 37 14 67 -22 102 -39 38 -36 51 27 114 47 48 52 104
12 135 -23 19 -24 20 -5 25 34 9 45 49 27 102 -14 44 -14 48 4 66 20 20 26 78
9 95 -7 7 -2 18 15 34 19 18 25 34 25 66 0 24 5 46 11 50 7 4 9 24 6 51 -4 37
-1 50 17 70 26 30 37 66 25 84 -5 8 -9 27 -9 43 0 16 -7 37 -16 47 -15 16 -15
20 0 41 21 30 20 50 -3 79 -21 27 -13 49 21 62 27 10 51 54 44 82 -3 13 -22
40 -41 59 -20 20 -35 45 -35 58 0 13 -14 40 -31 61 -27 33 -37 38 -73 37 -22
0 -58 3 -78 6 -31 5 -41 2 -63 -20 -30 -31 -59 -33 -77 -8 -31 44 -81 53 -121
22 l-26 -21 -21 21 c-11 11 -24 20 -29 20 -5 0 -15 2 -23 4 -7 3 -23 1 -35 -4z
m-5553 -256 c0 -8 -5 -12 -10 -9 -6 4 -8 11 -5 16 9 14 15 11 15 -7z m3215
-34 c3 -5 -1 -10 -9 -10 -9 0 -16 5 -16 10 0 6 4 10 9 10 6 0 13 -4 16 -10z
m-4308 -122 c-3 -8 -6 -5 -6 6 -1 11 2 17 5 13 3 -3 4 -12 1 -19z m-2193 -47
c-2 -3 -12 3 -22 13 -16 17 -16 18 5 5 12 -7 20 -15 17 -18z m-1628 -1391 c64
0 84 -79 34 -132 -16 -17 -30 -35 -30 -39 0 -5 -9 -18 -20 -29 -29 -29 -83
-27 -108 5 -24 30 -32 31 -32 5 0 -54 -89 -81 -130 -40 l-21 21 -26 -21 c-14
-11 -37 -20 -50 -20 -36 0 -73 42 -73 84 0 19 -4 38 -10 41 -5 3 -10 24 -10
45 0 53 35 80 101 80 37 0 55 -6 78 -26 30 -25 33 -25 56 -10 13 9 33 16 44
16 10 0 34 7 52 15 22 10 50 13 78 10 24 -3 54 -5 67 -5z m-42 -445 c22 -33
20 -61 -5 -78 -17 -13 -19 -18 -8 -35 10 -17 10 -24 -4 -46 -9 -14 -17 -34
-17 -44 0 -11 -9 -31 -20 -45 -11 -14 -20 -40 -20 -60 0 -19 -7 -40 -15 -47
-8 -7 -15 -18 -15 -25 0 -7 -7 -18 -15 -25 -8 -7 -15 -23 -15 -35 0 -12 -7
-28 -15 -35 -8 -7 -15 -22 -15 -34 0 -12 -7 -31 -15 -43 -10 -14 -12 -24 -5
-28 20 -13 11 -55 -15 -67 -16 -7 -25 -19 -25 -34 0 -29 -28 -103 -47 -125
-11 -14 -11 -18 2 -29 29 -24 18 -56 -35 -98 -43 -34 -48 -42 -34 -50 24 -13
21 -62 -6 -84 -17 -14 -21 -24 -16 -44 4 -16 1 -35 -7 -48 -8 -11 -17 -46 -21
-77 -5 -37 -14 -63 -27 -75 -10 -9 -19 -27 -19 -39 0 -12 -9 -34 -20 -48 -11
-14 -20 -31 -20 -37 0 -7 -9 -25 -20 -41 -18 -24 -20 -39 -16 -98 4 -53 2 -72
-9 -81 -8 -7 -13 -16 -10 -20 2 -4 -4 -15 -15 -25 -11 -10 -20 -26 -20 -36 0
-10 -4 -21 -10 -24 -5 -3 -12 -28 -16 -56 -4 -33 -13 -55 -25 -62 -11 -7 -19
-17 -19 -23 0 -6 -7 -17 -15 -24 -11 -9 -13 -16 -5 -24 18 -18 12 -64 -10 -76
-11 -6 -20 -17 -20 -26 0 -8 -7 -17 -15 -20 -8 -4 -15 -17 -15 -29 0 -13 -11
-32 -25 -43 -21 -17 -23 -21 -10 -32 21 -18 19 -32 -19 -113 -52 -110 -69
-151 -71 -167 -1 -8 -10 -33 -19 -54 -11 -27 -13 -43 -6 -50 14 -14 13 -59 -2
-74 -7 -7 -20 -12 -30 -12 -14 0 -16 -6 -12 -28 4 -19 1 -32 -10 -41 -9 -8
-16 -22 -16 -32 0 -10 -5 -21 -10 -24 -7 -4 -6 -13 1 -26 12 -24 5 -50 -20
-74 -15 -12 -18 -25 -14 -50 4 -26 1 -36 -14 -46 -12 -7 -18 -19 -16 -29 2 -9
-3 -22 -11 -29 -9 -8 -16 -20 -16 -28 0 -12 -26 -60 -40 -73 -3 -3 -7 -18 -8
-35 -2 -16 -10 -50 -18 -75 -9 -26 -13 -58 -9 -78 4 -23 2 -39 -8 -51 -8 -9
-21 -33 -28 -55 -8 -22 -24 -43 -37 -49 -19 -9 -22 -17 -20 -61 2 -67 -23
-153 -52 -173 -20 -14 -21 -21 -16 -67 7 -49 5 -53 -24 -79 -17 -16 -30 -37
-30 -51 0 -13 -6 -29 -14 -35 -8 -7 -12 -21 -9 -32 3 -11 -4 -39 -15 -62 -30
-62 -35 -79 -36 -112 -1 -23 -8 -34 -34 -46 -27 -14 -30 -18 -17 -29 23 -19
19 -65 -8 -83 -13 -9 -30 -30 -37 -49 -7 -18 -20 -41 -28 -50 -12 -15 -12 -20
2 -40 25 -35 19 -61 -24 -103 -42 -41 -51 -74 -25 -95 27 -22 13 -53 -33 -79
-36 -19 -48 -22 -68 -12 -13 6 -24 19 -24 28 0 10 -9 24 -20 31 -11 7 -20 23
-20 37 0 14 9 30 20 37 11 7 20 19 20 26 0 8 9 25 20 39 14 18 20 41 20 78 0
42 5 56 25 75 14 13 24 29 21 36 -3 7 2 20 9 31 8 10 15 27 15 38 1 11 8 38
16 60 9 22 15 49 15 60 -2 36 9 64 27 69 10 4 18 17 18 33 1 16 7 46 14 68 6
22 15 58 18 80 5 27 14 43 30 51 34 17 54 61 47 104 -5 27 -2 40 9 50 9 7 16
20 16 29 0 9 7 24 14 34 11 14 11 24 3 47 -9 24 -8 32 8 49 10 12 24 21 32 21
10 0 13 20 13 80 0 79 1 81 29 98 25 14 28 21 24 48 -4 24 0 35 14 45 18 13
28 38 37 97 2 12 11 31 20 41 17 19 18 24 13 91 -2 29 2 37 26 48 39 19 56 50
52 101 -2 36 2 49 22 69 21 21 24 31 18 67 -5 37 -2 47 20 70 29 32 28 27 15
60 -12 30 2 65 25 65 16 0 18 7 15 57 -1 23 4 35 19 43 16 8 21 20 21 51 0 27
5 42 16 46 9 3 14 13 11 25 -4 12 5 31 24 52 33 38 35 48 14 66 -23 19 -18 44
15 73 17 15 30 36 30 46 0 11 5 23 10 26 6 3 7 17 4 30 -6 23 28 95 48 103 4
2 5 23 1 47 -5 37 -2 45 16 57 11 7 21 20 21 30 0 9 12 26 26 37 14 11 23 24
20 29 -2 4 8 34 24 64 15 31 26 59 24 61 -3 2 -7 20 -9 40 -4 28 0 39 16 50
11 9 22 31 26 53 3 22 16 53 29 71 16 21 24 45 24 72 0 22 6 44 13 48 7 4 21
25 31 46 16 35 16 40 2 62 -20 30 -20 49 -2 64 8 7 18 37 21 66 6 46 12 58 41
80 19 14 34 34 34 44 0 10 11 30 25 46 25 26 25 28 10 52 -23 34 -16 75 15 90
22 11 25 19 25 65 0 42 4 54 20 63 13 7 19 18 17 34 -3 16 6 33 28 54 28 27
31 36 26 67 -4 23 -1 43 8 56 8 11 17 46 21 79 8 62 19 93 41 110 7 6 14 32
16 60 3 43 7 52 31 63 17 9 27 21 27 36 0 50 65 65 94 21z m-1419 -4950 c19
-8 39 -25 44 -37 5 -13 16 -30 25 -37 21 -18 30 -74 17 -100 -7 -11 -24 -24
-39 -27 -15 -4 -39 -15 -54 -25 -31 -23 -76 -24 -102 -4 -28 21 -46 18 -46 -7
0 -47 -36 -68 -115 -68 -46 0 -60 4 -80 25 -31 31 -32 62 -1 104 33 44 56 60
87 61 20 0 28 6 33 23 6 26 43 47 81 47 14 0 25 5 25 10 0 19 40 50 65 50 14
0 41 -7 60 -15z m93 -467 c17 -17 15 -63 -3 -78 -8 -7 -15 -25 -15 -41 0 -15
-14 -54 -31 -86 -25 -49 -30 -69 -31 -130 0 -69 -1 -72 -34 -100 -19 -15 -34
-37 -34 -48 0 -12 -5 -26 -11 -32 -8 -8 -5 -17 11 -33 25 -25 20 -75 -10 -101
-11 -9 -22 -29 -26 -45 -4 -16 -13 -37 -21 -46 -8 -9 -12 -22 -8 -27 3 -6 -1
-25 -9 -43 -9 -17 -16 -39 -16 -48 0 -10 -6 -23 -14 -29 -7 -6 -16 -32 -19
-58 -3 -26 -10 -49 -16 -51 -6 -2 -11 -16 -11 -31 0 -15 -6 -36 -14 -46 -8
-11 -12 -33 -9 -54 4 -28 0 -40 -16 -55 -12 -11 -21 -25 -21 -33 0 -7 -6 -16
-13 -19 -13 -5 -15 -14 -19 -131 -2 -49 -7 -65 -23 -77 -14 -10 -19 -24 -17
-48 2 -25 -3 -39 -22 -57 -20 -19 -23 -28 -15 -43 11 -20 4 -58 -11 -58 -4 0
-6 -17 -3 -38 4 -33 1 -42 -24 -63 -24 -20 -29 -31 -26 -56 3 -17 0 -33 -5
-37 -6 -4 -8 -21 -5 -39 4 -29 1 -36 -30 -60 -34 -26 -35 -27 -25 -73 7 -32 7
-49 -1 -57 -6 -6 -11 -19 -11 -28 0 -10 -9 -24 -19 -31 -11 -8 -23 -26 -26
-41 -4 -14 -13 -31 -21 -38 -17 -14 -18 -33 -2 -59 10 -16 10 -24 0 -38 -25
-35 -35 -69 -36 -126 -1 -33 -6 -61 -11 -63 -31 -11 -37 -21 -25 -42 9 -18 8
-27 -6 -49 -12 -17 -18 -47 -19 -83 -1 -47 -6 -62 -33 -96 -18 -23 -32 -53
-33 -69 -2 -69 -24 -146 -46 -164 -16 -12 -23 -28 -23 -53 0 -19 -7 -40 -15
-47 -12 -10 -14 -24 -10 -54 5 -32 1 -49 -16 -76 -12 -19 -24 -45 -25 -58 -2
-13 -7 -29 -12 -35 -6 -7 -13 -33 -17 -59 -4 -26 -13 -55 -20 -64 -7 -11 -11
-33 -8 -55 3 -21 1 -39 -6 -43 -6 -4 -11 -20 -11 -37 0 -18 -7 -33 -20 -41
-17 -11 -19 -20 -14 -59 6 -41 4 -49 -15 -58 -16 -9 -19 -18 -14 -41 7 -39
-12 -87 -55 -130 -29 -30 -33 -40 -28 -71 5 -28 1 -40 -14 -54 -11 -10 -20
-25 -20 -34 0 -17 -20 -79 -31 -96 -10 -16 -23 -97 -20 -128 2 -18 -5 -37 -17
-50 -11 -12 -22 -38 -25 -57 -12 -74 -20 -100 -28 -100 -5 0 -9 -13 -9 -29 0
-16 -7 -34 -15 -41 -8 -7 -15 -19 -15 -27 0 -7 -7 -16 -15 -20 -14 -5 -14 -7
-1 -22 21 -23 31 -77 17 -85 -6 -4 -11 -16 -11 -26 0 -11 -11 -36 -25 -56 -14
-21 -28 -49 -31 -63 -6 -28 -5 -27 -48 -91 -23 -35 -26 -47 -17 -62 17 -27 13
-46 -13 -63 -22 -15 -24 -21 -21 -83 3 -57 1 -70 -17 -90 -26 -27 -49 -90 -37
-98 17 -10 9 -45 -14 -55 -21 -10 -23 -16 -21 -77 1 -68 -12 -102 -43 -102
-16 0 -16 -5 -1 -30 17 -26 0 -54 -35 -58 -18 -2 -29 3 -37 18 -6 12 -9 24 -6
27 3 3 -4 17 -14 31 -22 27 -26 57 -10 67 6 4 8 15 5 25 -4 12 2 27 14 39 13
13 23 40 27 73 4 29 12 60 19 68 20 25 29 53 29 95 1 32 6 42 24 50 20 9 22
17 22 86 0 78 7 93 43 100 18 4 18 6 -3 31 -18 24 -20 34 -13 70 6 27 16 46
29 53 11 6 19 15 17 22 -2 6 7 30 22 52 20 33 26 56 28 117 2 54 8 80 18 88
20 15 31 44 19 51 -14 9 -12 49 2 63 7 7 20 12 30 12 14 0 18 8 18 40 0 22 4
48 8 58 5 9 16 32 25 50 10 19 14 38 11 43 -3 6 1 20 9 33 8 12 18 53 22 91 5
40 18 89 33 118 13 28 28 76 31 108 8 61 22 86 58 100 24 9 31 33 13 44 -15 9
-12 46 6 66 14 15 14 22 3 54 -13 34 -12 38 6 54 11 9 30 36 43 59 19 35 22
51 16 92 -5 41 -4 51 10 56 9 3 16 16 16 29 0 12 7 28 15 35 8 7 15 26 15 43
0 19 12 45 34 72 33 39 34 43 20 64 -21 29 -10 94 21 127 19 21 22 29 13 43
-7 11 -8 29 -3 47 4 16 7 39 6 50 -2 24 23 54 45 54 8 0 14 8 14 19 0 10 6 24
14 30 10 9 13 23 9 48 -4 25 -2 40 8 47 8 6 20 22 27 35 11 19 11 26 -2 40
-22 24 -20 58 4 73 11 7 20 20 20 29 0 9 7 22 16 30 12 10 14 23 9 62 -6 41
-4 52 14 71 15 16 22 40 26 88 2 35 11 78 20 94 8 16 15 34 15 41 0 6 8 18 18
25 40 28 52 60 39 105 -9 36 -8 45 5 60 9 10 20 30 23 46 4 15 11 29 15 32 5
3 6 29 3 58 -4 44 -2 55 15 70 17 16 19 23 10 43 -9 19 -8 28 7 44 10 11 24
20 32 20 8 0 13 11 13 29 0 15 11 45 25 65 15 21 25 51 25 71 0 19 9 49 19 67
25 43 35 94 22 103 -15 8 -14 48 1 63 7 7 20 12 30 12 14 0 16 6 12 30 -4 16
-2 36 4 42 6 7 13 30 17 51 4 20 11 40 16 43 5 3 9 16 9 30 0 13 9 33 20 44
24 24 25 41 4 81 -14 28 -14 33 1 55 8 13 25 24 36 24 19 0 21 4 15 31 -4 24
-1 35 20 56 23 23 24 26 10 49 -21 31 -20 60 2 76 14 9 21 32 26 78 9 74 20
100 44 100 14 0 18 9 19 41 1 23 9 49 18 58 17 19 20 41 6 41 -22 0 -16 51 11
94 15 25 28 51 28 57 0 6 9 22 20 36 11 14 20 32 20 39 0 34 82 58 108 32z
m11466 -3563 c3 -8 1 -15 -4 -15 -6 0 -10 7 -10 15 0 8 2 15 4 15 2 0 6 -7 10
-15z m-12774 -2285 c5 0 16 -7 24 -16 23 -23 20 -71 -6 -97 -16 -16 -22 -32
-20 -54 2 -24 -3 -36 -24 -52 -37 -29 -61 -26 -95 10 l-30 32 -29 -28 c-25
-24 -35 -27 -69 -22 -36 4 -40 2 -51 -23 -14 -34 -60 -56 -87 -42 -14 8 -24 5
-42 -9 -34 -28 -68 -24 -101 11 -15 17 -31 30 -36 30 -4 0 -16 7 -26 17 -22
20 -24 66 -3 83 8 7 15 18 15 25 0 7 16 27 35 44 42 37 85 41 116 10 l20 -20
43 20 c23 12 54 21 69 21 15 0 27 5 27 12 0 22 33 48 63 48 18 0 41 -9 54 -22
31 -29 59 -33 66 -8 6 22 44 41 65 34 8 -2 17 -4 22 -4z m-740 -2050 c0 -5 -7
-10 -15 -10 -8 0 -15 5 -15 10 0 6 7 10 15 10 8 0 15 -4 15 -10z m-60 -289 c0
-5 -7 -11 -15 -15 -9 -3 -15 0 -15 9 0 8 7 15 15 15 8 0 15 -4 15 -9z"/>
<path d="M4150 10084 c0 -8 5 -12 10 -9 6 4 8 11 5 16 -9 14 -15 11 -15 -7z"/>
<path d="M15904 9215 c1 -46 22 -46 22 0 0 19 -5 35 -11 35 -7 0 -11 -15 -11
-35z"/>
<path d="M15005 4830 c-3 -5 -1 -10 4 -10 6 0 11 5 11 10 0 6 -2 10 -4 10 -3
0 -8 -4 -11 -10z"/>
<path d="M6323 1409 c-5 -5 -52 -12 -103 -14 -100 -5 -130 -11 -130 -25 0 -15
47 -23 66 -12 9 5 32 6 52 1 20 -4 39 -6 43 -3 4 2 29 8 56 13 35 7 54 6 74
-5 24 -12 27 -12 31 4 4 13 -2 17 -25 18 -17 1 -36 8 -42 17 -8 11 -15 13 -22
6z"/>
<path d="M5495 1393 c-16 -3 -36 -10 -43 -15 -9 -8 -16 -8 -24 0 -7 7 -19 12
-27 12 -9 0 -3 -7 13 -15 16 -9 37 -13 46 -10 10 3 30 1 45 -5 20 -7 31 -7 41
1 8 6 27 9 44 7 39 -6 39 7 -1 21 -32 11 -40 11 -94 4z"/>
<path d="M5671 1389 c-39 -16 -10 -37 47 -34 51 3 58 13 21 32 -28 15 -36 15
-68 2z"/>
<path d="M12120 1375 c-8 -9 -8 -15 -2 -15 12 0 26 19 19 26 -2 2 -10 -2 -17
-11z"/>
<path d="M5870 1371 c0 -6 13 -11 28 -11 15 0 33 -5 39 -11 8 -8 13 -8 18 1 9
15 7 17 -42 25 -29 4 -43 3 -43 -4z"/>
<path d="M4800 1330 c0 -5 5 -10 11 -10 5 0 7 5 4 10 -3 6 -8 10 -11 10 -2 0
-4 -4 -4 -10z"/>
</g>
</svg>
