<svg width="78" height="62" viewBox="0 0 78 62" fill="none" xmlns="http://www.w3.org/2000/svg">
<g clip-path="url(#clip0_1_136)">
<path fill-rule="evenodd" clip-rule="evenodd" d="M76.0878 44.4937C74.7201 46.4003 71.2679 47.8858 71.2679 47.8858L45.3593 58.6719L45.0096 51.6742L64.0851 43.7806C66.2536 42.8844 66.5343 41.745 64.7082 41.236C62.8821 40.727 59.6732 41.075 57.5046 41.9712L44.7852 47.1837L44.4223 39.924L45.1576 39.6247C45.1576 39.6247 48.8343 38.1279 54.0433 37.2673C59.2542 36.4441 65.7224 36.7586 70.8696 38.4146C76.6867 39.9621 77.4556 42.5872 76.0878 44.4937ZM46.6415 34.0359L45.7475 16.1486C45.6427 14.0531 45.1713 12.1259 43.1618 11.7011C41.6406 11.2894 40.7762 12.7582 40.8809 14.8538L43.1178 59.6093L30.8382 56.359L28.1711 2.99669C33.3446 3.67598 40.9428 5.5846 45.0142 6.73163C55.406 9.73861 59.1031 13.9055 59.595 23.7472C60.0756 33.3644 54.3445 37.2898 46.6415 34.0359ZM8.48672 52.7493C2.56676 51.3946 1.42174 48.0005 3.98138 45.9218C6.35952 43.9647 10.4833 42.4081 10.4833 42.4081L27.4651 35.407L27.8149 42.4047L15.5762 47.4806C13.4077 48.3768 13.127 49.5162 14.9531 50.0252C16.7792 50.5342 19.9881 50.1862 22.1567 49.29L28.0355 46.8204L28.3498 53.1071C27.9793 53.2006 27.5714 53.2961 27.1616 53.354C21.221 54.5888 14.8389 54.4951 8.48672 52.7493Z" fill="white"/>
</g>
<defs>
<clipPath id="clip0_1_136">
<rect width="74.9354" height="58" fill="white" transform="translate(0.0866699 4.02522) rotate(-2.86128)"/>
</clipPath>
</defs>
</svg>
