<svg width="59" height="58" viewBox="0 0 59 58" fill="none" xmlns="http://www.w3.org/2000/svg">
<rect x="0.252441" width="58" height="58" rx="13" fill="#812713"/>
<path d="M20.8996 20.2C21.8596 20.2 22.6996 20.336 23.4196 20.608C24.1396 20.864 24.7316 21.232 25.1956 21.712C25.6756 22.176 26.0356 22.736 26.2756 23.392C26.5156 24.032 26.6356 24.728 26.6356 25.48C26.6356 26.248 26.5156 26.952 26.2756 27.592C26.0356 28.232 25.6756 28.792 25.1956 29.272C24.7316 29.736 24.1396 30.096 23.4196 30.352C22.6996 30.608 21.8596 30.736 20.8996 30.736H18.3556V37H16.0516V20.2H20.8996ZM18.3556 22.072V28.864H20.8996C21.5876 28.864 22.1556 28.768 22.6036 28.576C23.0516 28.368 23.4036 28.104 23.6596 27.784C23.9316 27.464 24.1236 27.104 24.2356 26.704C24.3476 26.304 24.4036 25.896 24.4036 25.48C24.4036 25.08 24.3476 24.68 24.2356 24.28C24.1236 23.864 23.9316 23.496 23.6596 23.176C23.4036 22.84 23.0516 22.576 22.6036 22.384C22.1556 22.176 21.5876 22.072 20.8996 22.072H18.3556ZM35.0665 39.544C34.2665 39.544 33.5305 39.328 32.8585 38.896C32.1865 38.464 31.6025 37.816 31.1065 36.952C30.6105 36.088 30.2185 35 29.9305 33.688C29.6585 32.376 29.5225 30.832 29.5225 29.056C29.5225 27.312 29.6585 25.792 29.9305 24.496C30.2185 23.184 30.6105 22.096 31.1065 21.232C31.6025 20.368 32.1865 19.72 32.8585 19.288C33.5305 18.856 34.2665 18.64 35.0665 18.64V20.752C34.6025 20.752 34.1785 20.904 33.7945 21.208C33.4105 21.512 33.0745 22 32.7865 22.672C32.5145 23.344 32.2985 24.208 32.1385 25.264C31.9945 26.304 31.9225 27.568 31.9225 29.056C31.9225 30.56 31.9945 31.84 32.1385 32.896C32.2985 33.952 32.5145 34.816 32.7865 35.488C33.0745 36.16 33.4105 36.656 33.7945 36.976C34.1785 37.28 34.6025 37.432 35.0665 37.432V39.544ZM37.4688 39.544V37.432C37.9328 37.432 38.3568 37.28 38.7408 36.976C39.1248 36.656 39.4528 36.16 39.7248 35.488C40.0128 34.816 40.2288 33.952 40.3728 32.896C40.5328 31.84 40.6128 30.56 40.6128 29.056C40.6128 27.568 40.5328 26.304 40.3728 25.264C40.2288 24.208 40.0128 23.344 39.7248 22.672C39.4528 22 39.1248 21.512 38.7408 21.208C38.3568 20.904 37.9328 20.752 37.4688 20.752V18.64C38.2688 18.64 39.0048 18.856 39.6768 19.288C40.3488 19.72 40.9328 20.368 41.4288 21.232C41.9248 22.096 42.3088 23.184 42.5808 24.496C42.8688 25.792 43.0128 27.312 43.0128 29.056C43.0128 30.832 42.8688 32.376 42.5808 33.688C42.3088 35 41.9248 36.088 41.4288 36.952C40.9328 37.816 40.3488 38.464 39.6768 38.896C39.0048 39.328 38.2688 39.544 37.4688 39.544Z" fill="white"/>
</svg>
