<svg width="61" height="61" viewBox="0 0 61 61" fill="none" xmlns="http://www.w3.org/2000/svg">
<g clip-path="url(#clip0_1_124)">
<path d="M29.3496 1.54925C22.1544 1.93892 15.3711 5.04341 10.3516 10.244C5.33211 15.4446 2.44507 22.3593 2.26589 29.61L17.8734 35.2641C19.1623 34.2705 20.7221 33.6969 22.3443 33.6199C22.4958 33.6123 22.6456 33.6089 22.7935 33.6096L29.0898 23.262L29.0828 23.1223C28.9975 20.9853 29.5423 18.871 30.6486 17.0458C31.7548 15.2205 33.3731 13.7659 35.2997 12.8651C37.2262 11.9644 39.3748 11.6577 41.475 11.9837C43.5751 12.3097 45.5329 13.2538 47.1018 14.6972C48.6706 16.1406 49.7804 18.0187 50.2914 20.095C50.8024 22.1713 50.6917 24.3529 49.9732 26.3652C49.2548 28.3774 47.9608 30.1304 46.2541 31.4032C44.5474 32.676 42.5044 33.4119 40.3823 33.5181L40.1389 33.5302L30.7949 41.0383C30.8014 41.1679 30.8181 41.299 30.8244 41.4266C30.9454 43.4517 30.3098 45.4487 29.0424 47.0252C27.7749 48.6018 25.9673 49.644 23.9747 49.947C21.982 50.2501 19.9482 49.7921 18.273 48.6631C16.5977 47.534 15.402 45.8156 14.9207 43.8452L3.75767 39.7693C5.92575 46.3963 10.4165 52.0036 16.3907 55.5432C22.3648 59.0827 29.4136 60.3125 36.2198 59.0025C43.026 57.6925 49.1237 53.9325 53.3736 48.4251C57.6234 42.9177 59.7346 36.0398 59.3124 29.0767C58.9618 21.4298 55.6084 14.2341 49.9896 9.072C44.3708 3.90986 36.9466 1.20393 29.3496 1.54925ZM21.0003 46.0237L17.4229 44.7289C17.9765 45.7692 18.8188 46.6252 19.8469 47.1924C20.875 47.7597 22.0447 48.0138 23.2134 47.9237C24.382 47.8337 25.4992 47.4034 26.4288 46.6853C27.3584 45.9673 28.0602 44.9924 28.4487 43.8795C28.9952 42.3417 28.9142 40.6482 28.2233 39.1696C27.5614 37.7237 26.3616 36.5972 24.8827 36.0329C23.4038 35.4686 21.7642 35.5116 20.3174 36.1528L24.0139 37.4924C25.1308 37.9075 26.0401 38.7494 26.5444 39.835C27.0487 40.9206 27.1072 42.1624 26.7073 43.2906C26.5135 43.8491 26.2116 44.3633 25.8191 44.8035C25.4267 45.2437 24.9514 45.6012 24.4207 45.8553C23.8901 46.1095 23.3145 46.2552 22.7275 46.2841C22.1404 46.313 21.5533 46.2245 21.0003 46.0237ZM46.9981 22.2188C46.9146 20.7953 46.4144 19.4282 45.5605 18.2899C44.7066 17.1515 43.5372 16.2929 42.1997 15.822C40.8622 15.3512 39.4164 15.2893 38.0446 15.6442C36.6728 15.999 35.4362 16.7547 34.4908 17.816C33.5454 18.8773 32.9334 20.1968 32.732 21.6081C32.5306 23.0194 32.7487 24.4594 33.3589 25.7467C33.9692 27.0339 34.9441 28.1108 36.161 28.8417C37.3779 29.5725 38.7823 29.9246 40.1971 29.8535C42.1043 29.7464 43.8909 28.8827 45.1657 27.4516C46.4405 26.0205 47.0994 24.1388 46.9981 22.2188ZM34.4624 22.8331C34.4184 21.7631 34.6901 20.7041 35.2432 19.7897C35.7963 18.8752 36.606 18.1462 37.5703 17.6944C38.5346 17.2426 39.6104 17.0883 40.6621 17.251C41.7138 17.4136 42.6944 17.8859 43.4802 18.6084C44.266 19.3308 44.822 20.2711 45.078 21.3107C45.3341 22.3503 45.2788 23.4427 44.919 24.4503C44.5593 25.4579 43.9112 26.3356 43.0565 26.9727C42.2018 27.6099 41.1787 27.9781 40.1161 28.0308C38.6822 28.0955 37.281 27.5843 36.2208 26.6096C35.1606 25.6349 34.5281 24.2765 34.4624 22.8331Z" fill="white"/>
</g>
<defs>
<clipPath id="clip0_1_124">
<rect width="57" height="58" fill="white" transform="translate(0.934387 2.96945) rotate(-2.86128)"/>
</clipPath>
</defs>
</svg>
