<svg width="62" height="62" viewBox="0 0 62 62" fill="none" xmlns="http://www.w3.org/2000/svg">
<g clip-path="url(#clip0_1_138)">
<path fill-rule="evenodd" clip-rule="evenodd" d="M35.8283 30.8638C35.3604 21.5029 34.8926 12.1419 34.4247 2.78097C34.3846 1.97886 34.3951 1.96735 35.2213 1.92605C38.1295 1.7807 41.0358 1.59589 43.946 1.48999C47.3468 1.36387 50.6873 2.41324 53.4051 4.46147C56.1229 6.5097 58.052 9.43171 58.8678 12.7357C59.1261 13.8094 59.2847 14.9047 59.3413 16.0076C59.8252 25.2212 60.2901 34.4359 60.7361 43.6515C60.85 45.6121 60.5751 47.5759 59.9273 49.4299C59.2794 51.2839 58.2713 52.9915 56.961 54.4545C55.6508 55.9174 54.0642 57.1069 52.2925 57.9544C50.5208 58.8019 48.599 59.2907 46.6378 59.3927C43.8401 59.5523 41.0405 59.6724 38.2397 59.8124C37.2798 59.8604 37.2798 59.8604 37.2306 58.8764L35.8283 30.8638ZM47.2015 27.4173C45.664 27.4828 44.2142 28.151 43.1656 29.2774C42.1171 30.4038 41.5543 31.8978 41.5988 33.436C41.6081 34.2131 41.7726 34.9805 42.0827 35.6932C42.3928 36.4058 42.8422 37.0494 43.4044 37.5859C43.9667 38.1224 44.6306 38.5412 45.357 38.8175C46.0834 39.0939 46.8577 39.2223 47.6344 39.1952C48.4111 39.1681 49.1745 38.986 49.8799 38.6597C50.5852 38.3333 51.2182 37.8693 51.7417 37.2949C52.2652 36.7205 52.6687 36.0472 52.9283 35.3147C53.188 34.5821 53.2986 33.8051 53.2537 33.0292C53.2273 32.2625 53.0494 31.5087 52.7305 30.811C52.4115 30.1133 51.9579 29.4855 51.3953 28.9639C50.8328 28.4423 50.1726 28.0372 49.4529 27.7717C48.7332 27.5063 47.968 27.3858 47.2015 27.4173Z" fill="white"/>
<path fill-rule="evenodd" clip-rule="evenodd" d="M30.048 31.2164C30.5168 40.5978 30.9857 49.9792 31.4546 59.3606C31.4912 60.0926 31.4183 60.1731 30.6862 60.2075L18.7422 60.8045C16.7909 60.9403 14.832 60.6903 12.9774 60.0686C11.1229 59.4469 9.40904 58.4658 7.93393 57.1813C5.66119 55.2512 4.04771 52.6596 3.31872 49.7684C3.08081 48.9144 2.92885 48.0389 2.86511 47.1547C2.35882 37.4646 1.74941 27.7775 1.44716 18.0816C1.29956 15.2804 1.98602 12.4984 3.41965 10.0873C4.85327 7.67625 6.96966 5.74451 9.50124 4.53637C11.4679 3.50799 13.6443 2.94446 15.8629 2.88917C19.8252 2.69113 23.7898 2.49298 27.7544 2.29483C28.5762 2.25376 28.6039 2.28095 28.6463 3.12909L30.048 31.2164ZM26.5315 55.6784L24.1076 7.18099L23.4764 7.21254C21.0416 7.33423 18.6037 7.43851 16.1697 7.57773C15.3559 7.62376 14.5473 7.73767 13.7524 7.91827C11.5109 8.49083 9.53133 9.81001 8.14001 11.6584C6.7487 13.5068 6.02864 15.774 6.09856 18.0865C6.57548 27.6286 7.02395 37.1721 7.54481 46.7142C7.62014 48.0794 7.98419 49.4132 8.61296 50.6274C9.24173 51.8416 10.1209 52.9086 11.1924 53.758C13.218 55.4553 15.8254 56.296 18.4609 56.1015C20.9878 55.9752 23.5147 55.8489 26.0416 55.7226C26.1934 55.726 26.3502 55.6984 26.5315 55.6784Z" fill="white"/>
<path fill-rule="evenodd" clip-rule="evenodd" d="M10.58 20.5385C10.5341 19.46 10.8098 18.3922 11.3719 17.4706C11.9341 16.5491 12.7574 15.8154 13.7373 15.3627C14.7173 14.91 15.8096 14.7587 16.8757 14.928C17.9418 15.0974 18.9336 15.5797 19.725 16.3138C20.5165 17.0479 21.0719 18.0006 21.3209 19.051C21.5698 20.1013 21.501 21.2019 21.1232 22.2131C20.7453 23.2243 20.0755 24.1005 19.1988 24.7302C18.3221 25.36 17.278 25.715 16.1991 25.7503C15.4866 25.7825 14.7748 25.6728 14.1052 25.4273C13.4355 25.1819 12.8214 24.8058 12.2985 24.3208C11.7756 23.8357 11.3543 23.2515 11.0593 22.6022C10.7643 21.9529 10.6014 21.2514 10.58 20.5385Z" fill="white"/>
</g>
<defs>
<clipPath id="clip0_1_138">
<rect width="58.0395" height="58" fill="white" transform="translate(0.626465 3.63971) rotate(-2.86128)"/>
</clipPath>
</defs>
</svg>
