<svg width="52" height="58" viewBox="0 0 52 58" fill="none" xmlns="http://www.w3.org/2000/svg">
<path d="M27.3022 0.0483561C30.4686 1.82539e-07 33.6117 0.0251451 36.7529 0C36.8574 3.92843 38.4512 7.46422 40.987 10.0832L40.9831 10.0793C43.7123 12.5377 47.2635 14.1315 51.1784 14.4023L51.2326 14.4062V24.147C47.5343 24.0542 44.0566 23.2012 40.9212 21.735L41.0798 21.8008C39.5634 21.0716 38.281 20.323 37.0624 19.4874L37.163 19.5532C37.1398 26.6112 37.1862 33.6692 37.1146 40.7021C36.9154 44.2863 35.7239 47.5551 33.8129 50.2843L33.8516 50.2244C30.6562 54.8008 25.4802 57.8046 19.5943 57.9826H19.5672C19.3293 57.9942 19.0489 58 18.7665 58C15.4202 58 12.2926 57.0677 9.62719 55.4487L9.70456 55.4932C4.8535 52.5745 1.50727 47.5803 0.888313 41.7718L0.880576 41.6925C0.83222 40.4836 0.809009 39.2747 0.857365 38.0909C1.80514 28.8472 9.54982 21.6963 18.9637 21.6963C20.0218 21.6963 21.0585 21.7872 22.0663 21.9594L21.9579 21.9439C22.0063 25.5203 21.8612 29.0986 21.8612 32.675C21.0431 32.3791 20.0991 32.207 19.1146 32.207C15.5015 32.207 12.428 34.5164 11.2906 37.7408L11.2732 37.7988C11.016 38.6248 10.867 39.5745 10.867 40.5571C10.867 40.9555 10.8922 41.3501 10.9386 41.7369L10.9347 41.6905C11.5769 45.648 14.9696 48.6344 19.0605 48.6344C19.1784 48.6344 19.2945 48.6325 19.4106 48.6267H19.3931C22.2229 48.5416 24.6794 47.0193 26.0682 44.7698L26.0875 44.735C26.604 44.0155 26.9579 43.1451 27.0759 42.1992L27.0779 42.1721C27.3196 37.8453 27.2229 33.5435 27.2461 29.2166C27.2694 19.4758 27.2229 9.75822 27.2945 0.0425533L27.3022 0.0483561Z" fill="#812713"/>
</svg>
