<svg width="74" height="58" viewBox="0 0 74 58" fill="none" xmlns="http://www.w3.org/2000/svg">
<path fill-rule="evenodd" clip-rule="evenodd" d="M23.7982 58C51.1565 58 66.1207 35.6826 66.1207 16.3314C66.1207 15.6961 66.1207 15.0656 66.0772 14.4375C68.9881 12.3674 71.5002 9.79726 73.4976 6.8564C70.7861 8.04132 67.9042 8.81839 64.957 9.161C68.0601 7.33009 70.3837 4.45364 71.4966 1.05951C68.5748 2.76549 65.3811 3.96951 62.0497 4.61553C56.4164 -1.2805 46.9949 -1.56617 41.0027 3.98008C37.142 7.55623 35.4999 12.8882 36.6998 17.974C24.7408 17.3816 13.5974 11.8212 6.04277 2.67379C2.09509 9.36566 4.11424 17.9233 10.6502 22.2204C8.28305 22.1525 5.96664 21.5251 3.89674 20.3901V20.576C3.90037 27.5463 8.89205 33.5481 15.8304 34.9293C13.6409 35.5182 11.3426 35.6036 9.11681 35.1788C11.0635 41.1463 16.6497 45.2335 23.0116 45.3513C17.7444 49.4271 11.2375 51.6403 4.53838 51.6332C3.35661 51.6296 2.17484 51.5617 0.996704 51.4225C7.80092 55.7196 15.7144 58.0001 23.7982 57.9894" fill="#812713"/>
</svg>
