<svg width="62" height="62" viewBox="0 0 62 62" fill="none" xmlns="http://www.w3.org/2000/svg">
<g clip-path="url(#clip0_1_143)">
<path d="M9.7073 11.3493C9.69786 11.3568 9.6897 11.3658 9.68313 11.376C4.92032 16.5707 2.21288 23.3225 2.06725 30.3687C1.92162 37.4149 4.34773 44.2728 8.89183 49.6599C8.90951 49.6842 8.93499 49.7017 8.964 49.7095C8.99302 49.7173 9.02383 49.715 9.05134 49.7029C9.07302 49.6852 9.08762 49.6604 9.09248 49.6328C9.09735 49.6052 9.09214 49.5768 9.07784 49.5527C6.52647 42.8356 16.9853 25.721 22.4715 18.4937C22.4942 18.4691 22.5083 18.4379 22.5117 18.4046C22.5089 18.3855 22.5019 18.3672 22.4912 18.3512C22.4804 18.3352 22.4662 18.3218 22.4497 18.312C12.1543 9.04537 9.64411 11.4035 9.68292 11.3718" fill="white"/>
<path d="M50.3501 9.30945C50.3722 9.32536 50.377 9.33786 50.3768 9.33362C55.6329 14.0284 58.999 20.4769 59.8456 27.4733C60.6923 34.4697 58.9616 41.535 54.9772 47.348C54.9623 47.3742 54.9388 47.3944 54.9106 47.4052C54.8825 47.4159 54.8514 47.4165 54.8229 47.4068C54.8005 47.3905 54.7842 47.3672 54.7767 47.3405C54.7692 47.3139 54.7709 47.2855 54.7815 47.26C56.6503 40.3219 44.545 24.3224 38.3695 17.6736C38.3454 17.6524 38.3284 17.6243 38.3208 17.5932C38.3213 17.5735 38.3263 17.5543 38.3354 17.5369C38.3445 17.5195 38.3574 17.5044 38.3732 17.4927C47.6953 7.2456 50.4099 9.35745 50.3723 9.32956" fill="white"/>
<path d="M29.6105 2.00653C34.9358 1.71898 40.2352 2.9272 44.9095 5.49456C44.9357 5.50537 44.9566 5.52616 44.9674 5.55234C44.9783 5.57851 44.9783 5.60793 44.9675 5.63413C44.9567 5.66033 44.9359 5.68116 44.9097 5.69204C44.8836 5.70292 44.8542 5.70295 44.828 5.69214C39.1614 4.75909 30.8812 10.0295 30.0973 10.5556C30.0813 10.5705 30.0609 10.5797 30.0391 10.5819C30.0166 10.5821 29.9946 10.575 29.9765 10.5616C27.7771 9.44041 19.6932 5.7066 14.7935 7.22516C14.7809 7.23166 14.767 7.23561 14.7528 7.23677C14.7386 7.23793 14.7244 7.23625 14.7109 7.23189C14.6835 7.22309 14.6607 7.20381 14.6476 7.17824C14.6345 7.15267 14.6321 7.12294 14.6409 7.09558C14.6497 7.06822 14.669 7.04547 14.6946 7.03235C19.0989 3.99448 24.2681 2.2552 29.613 2.0128" fill="white"/>
<path d="M30.7718 25.2383C30.8069 25.2415 30.8403 25.2554 30.8672 25.2782C39.8632 31.4351 55.5121 46.9875 51.2118 51.8208C46.1652 56.7023 39.5184 59.5862 32.506 59.9367C25.4935 60.2871 18.5922 58.0804 13.0841 53.7264C8.33387 49.3455 22.3498 32.3104 30.6785 25.2876C30.7067 25.2625 30.7411 25.2454 30.7781 25.238" fill="white"/>
</g>
<defs>
<clipPath id="clip0_1_143">
<rect width="57.9958" height="58" fill="white" transform="translate(0.647827 3.4541) rotate(-2.86128)"/>
</clipPath>
</defs>
</svg>
